<?xml version="1.0" standalone="no"?><svg xmlns="http://www.w3.org/2000/svg" viewBox="0 0 1440 320"><path fill="#da2128" fill-opacity="1" d="M0,224L11.4,224C22.9,224,46,224,69,202.7C91.4,181,114,139,137,112C160,85,183,75,206,80C228.6,85,251,107,274,138.7C297.1,171,320,213,343,229.3C365.7,245,389,235,411,197.3C434.3,160,457,96,480,112C502.9,128,526,224,549,245.3C571.4,267,594,213,617,181.3C640,149,663,139,686,128C708.6,117,731,107,754,96C777.1,85,800,75,823,106.7C845.7,139,869,213,891,229.3C914.3,245,937,203,960,154.7C982.9,107,1006,53,1029,64C1051.4,75,1074,149,1097,176C1120,203,1143,181,1166,170.7C1188.6,160,1211,160,1234,165.3C1257.1,171,1280,181,1303,208C1325.7,235,1349,277,1371,261.3C1394.3,245,1417,171,1429,133.3L1440,96L1440,0L1428.6,0C1417.1,0,1394,0,1371,0C1348.6,0,1326,0,1303,0C1280,0,1257,0,1234,0C1211.4,0,1189,0,1166,0C1142.9,0,1120,0,1097,0C1074.3,0,1051,0,1029,0C1005.7,0,983,0,960,0C937.1,0,914,0,891,0C868.6,0,846,0,823,0C800,0,777,0,754,0C731.4,0,709,0,686,0C662.9,0,640,0,617,0C594.3,0,571,0,549,0C525.7,0,503,0,480,0C457.1,0,434,0,411,0C388.6,0,366,0,343,0C320,0,297,0,274,0C251.4,0,229,0,206,0C182.9,0,160,0,137,0C114.3,0,91,0,69,0C45.7,0,23,0,11,0L0,0Z"></path></svg>